<svg width="42" height="43" viewBox="0 0 42 43" fill="none" xmlns="http://www.w3.org/2000/svg">
<path d="M20.9901 15.203C21.3448 15.203 21.6583 15.336 21.9306 15.602C22.2029 15.868 22.3391 16.1783 22.3391 16.533C22.3391 16.8877 22.2029 17.2012 21.9306 17.4735C21.6583 17.7458 21.3448 17.882 20.9901 17.882C20.6354 17.882 20.3219 17.7458 20.0496 17.4735C19.7773 17.2012 19.6411 16.8877 19.6411 16.533C19.6411 16.1783 19.7773 15.868 20.0496 15.602C20.3219 15.336 20.6354 15.203 20.9901 15.203ZM20.9901 20.656C21.3574 20.656 21.6741 20.789 21.9401 21.055C22.2061 21.321 22.3391 21.6345 22.3391 21.9955C22.3391 22.3565 22.2061 22.6732 21.9401 22.9455C21.6741 23.2178 21.3606 23.354 20.9996 23.354C20.6386 23.354 20.3219 23.2178 20.0496 22.9455C19.7773 22.6732 19.6411 22.3597 19.6411 22.005C19.6411 21.6503 19.7773 21.3368 20.0496 21.0645C20.3219 20.7922 20.6354 20.656 20.9901 20.656ZM20.9901 26.128C21.3448 26.128 21.6583 26.261 21.9306 26.527C22.2029 26.793 22.3391 27.1033 22.3391 27.458C22.3391 27.8127 22.2029 28.1262 21.9306 28.3985C21.6583 28.6708 21.3448 28.807 20.9901 28.807C20.6354 28.807 20.3219 28.6708 20.0496 28.3985C19.7773 28.1262 19.6411 27.8127 19.6411 27.458C19.6411 27.1033 19.7773 26.793 20.0496 26.527C20.3219 26.261 20.6354 26.128 20.9901 26.128Z" fill="black" style="fill:black;fill-opacity:1;"/>
</svg>
