<svg width="42" height="43" viewBox="0 0 42 43" fill="none" xmlns="http://www.w3.org/2000/svg">
<rect x="1" y="1.97998" width="40" height="40" rx="7" stroke="#EDEEF1" style="stroke:#EDEEF1;stroke:color(display-p3 0.9294 0.9333 0.9451);stroke-opacity:1;" stroke-width="2"/>
<path d="M16.62 30.517C16.4553 30.517 16.3033 30.4916 16.164 30.441C15.7967 30.327 15.5243 30.0926 15.347 29.738C15.195 29.4593 15.1507 29.149 15.214 28.807L15.917 24.608C15.917 24.494 15.8853 24.4116 15.822 24.361L12.896 21.359C12.6173 21.0676 12.4812 20.7193 12.4875 20.314C12.4938 19.9086 12.6363 19.5666 12.915 19.288C13.1303 19.098 13.3837 18.9713 13.675 18.908L17.741 18.281C17.817 18.281 17.874 18.2366 17.912 18.148L19.717 14.31C19.8817 13.9426 20.1413 13.702 20.496 13.588C20.8887 13.4486 21.2433 13.4613 21.56 13.626C21.8893 13.7653 22.1237 13.9933 22.263 14.31L24.068 18.148C24.1187 18.2366 24.1757 18.281 24.239 18.281L28.286 18.908C28.704 18.984 29.0238 19.1866 29.2455 19.516C29.4672 19.8453 29.5463 20.2126 29.483 20.618C29.4323 20.8966 29.2993 21.15 29.084 21.378L26.158 24.361C26.082 24.4116 26.0567 24.494 26.082 24.608L26.785 28.826C26.8483 29.2186 26.7723 29.567 26.557 29.871C26.4683 30.023 26.3417 30.1528 26.177 30.2605C26.0123 30.3681 25.8413 30.441 25.664 30.479C25.322 30.5423 25.0117 30.498 24.733 30.346L21.085 28.351C21.0217 28.313 20.9583 28.313 20.895 28.351L17.285 30.346C17.057 30.46 16.8353 30.517 16.62 30.517ZM20.99 14.69C20.9647 14.69 20.9393 14.69 20.914 14.69L20.895 14.709C20.8443 14.7343 20.8127 14.766 20.8 14.804L18.976 18.661C18.8747 18.8763 18.7322 19.0536 18.5485 19.193C18.3648 19.3323 18.1527 19.421 17.912 19.459L13.865 20.067C13.8143 20.0923 13.7763 20.1176 13.751 20.143C13.7003 20.1936 13.675 20.257 13.675 20.333C13.675 20.409 13.7003 20.4723 13.751 20.523L16.677 23.525C16.8417 23.7023 16.9588 23.9018 17.0285 24.1235C17.0982 24.3451 17.114 24.57 17.076 24.798L16.392 29.016C16.3793 29.0793 16.3857 29.1395 16.411 29.1965C16.4363 29.2535 16.4743 29.2946 16.525 29.32H16.582C16.6327 29.3326 16.677 29.3263 16.715 29.301L20.325 27.306C20.5403 27.192 20.7652 27.135 20.9995 27.135C21.2338 27.135 21.4523 27.192 21.655 27.306L25.284 29.301C25.3093 29.3136 25.3568 29.3168 25.4265 29.3105C25.4962 29.3041 25.5468 29.2756 25.5785 29.225C25.6102 29.1743 25.6197 29.111 25.607 29.035L24.904 24.798C24.866 24.5573 24.8818 24.3261 24.9515 24.1045C25.0212 23.8828 25.1383 23.6896 25.303 23.525L28.229 20.523C28.267 20.485 28.2923 20.4375 28.305 20.3805C28.3177 20.3235 28.3082 20.2601 28.2765 20.1905C28.2448 20.1208 28.1847 20.0796 28.096 20.067L24.068 19.459C23.8273 19.421 23.612 19.3291 23.422 19.1835C23.232 19.0378 23.0863 18.8573 22.985 18.642L21.18 14.804C21.1673 14.7786 21.1483 14.747 21.123 14.709L21.085 14.69H20.99Z" fill="black" style="fill:black;fill-opacity:1;"/>
</svg>
