<svg width="42" height="43" viewBox="0 0 42 43" fill="none" xmlns="http://www.w3.org/2000/svg">
<rect x="1" y="1.60999" width="40" height="40" rx="20" stroke="#EDEEF1" style="stroke:#EDEEF1;stroke:color(display-p3 0.9294 0.9333 0.9451);stroke-opacity:1;" stroke-width="2"/>
<g clip-path="url(#clip0_21_38)">
<path d="M26.7801 23.718V23.242C26.7801 23.1513 26.7631 23.0663 26.7291 22.987C26.6724 22.8283 26.5817 22.7036 26.4571 22.613C26.3324 22.5223 26.1851 22.4713 26.0151 22.46C25.7884 22.4826 25.6014 22.5733 25.4541 22.732C25.3294 22.8793 25.2671 23.0436 25.2671 23.225V23.701C25.2671 24.0183 25.3521 24.296 25.5221 24.534L25.8451 25.027H16.2401L16.5801 24.534C16.7387 24.2846 16.8181 24.007 16.8181 23.701V20.165C16.8181 19.5983 16.9286 19.0628 17.1496 18.5585C17.3706 18.0541 17.6794 17.615 18.0761 17.241C18.4614 16.867 18.9062 16.578 19.4106 16.374C19.9149 16.17 20.4447 16.068 21.0001 16.068H21.1191C21.5837 16.0793 22.0201 16.1643 22.4281 16.323L22.4111 16.306C22.4791 16.34 22.5584 16.357 22.6491 16.357C22.8984 16.357 23.0854 16.255 23.2101 16.051L23.2271 16.034C23.3177 15.9093 23.3631 15.7648 23.3631 15.6005C23.3631 15.4361 23.3149 15.286 23.2186 15.15C23.1222 15.014 23.0004 14.9233 22.8531 14.878C22.6264 14.7986 22.3487 14.7306 22.0201 14.674L21.9861 14.657V14.045C21.9747 13.7843 21.8812 13.5633 21.7056 13.382C21.5299 13.2006 21.3117 13.11 21.0511 13.11C20.7904 13.11 20.5694 13.2006 20.3881 13.382C20.2067 13.5633 20.1104 13.7786 20.0991 14.028V14.657C19.5097 14.7476 18.9544 14.9233 18.4331 15.184C17.9117 15.4446 17.4414 15.7733 17.0221 16.17C16.4781 16.68 16.0587 17.275 15.7641 17.955C15.4581 18.6576 15.3051 19.3943 15.3051 20.165V23.497C15.3051 23.6556 15.2654 23.7916 15.1861 23.905L14.2001 25.367C14.1207 25.4803 14.0811 25.6163 14.0811 25.775C14.0811 25.8996 14.1094 26.0186 14.1661 26.132C14.2341 26.2453 14.3276 26.336 14.4466 26.404C14.5656 26.472 14.6931 26.506 14.8291 26.506H18.0081C18.1667 27.2313 18.5266 27.832 19.0876 28.308C19.6486 28.784 20.2974 29.0333 21.0341 29.056H21.0511C21.5384 29.0446 21.9917 28.9256 22.4111 28.699C22.8304 28.4723 23.1846 28.172 23.4736 27.798C23.7626 27.424 23.9581 27.0046 24.0601 26.54L24.0771 26.506H27.2561C27.3921 26.506 27.5196 26.472 27.6386 26.404C27.7576 26.336 27.8511 26.2453 27.9191 26.132C27.9757 26.0186 28.0041 25.894 28.0041 25.758C28.0041 25.622 27.9644 25.486 27.8851 25.35V25.367L26.7801 23.718ZM21.0511 27.56C20.7224 27.5373 20.4249 27.4325 20.1586 27.2455C19.8922 27.0585 19.6967 26.8176 19.5721 26.523H22.5131C22.3884 26.8176 22.1957 27.0585 21.9351 27.2455C21.6744 27.4325 21.3797 27.5373 21.0511 27.56ZM27.9361 17.564H26.4911V16.17C26.4911 15.9886 26.4316 15.8385 26.3126 15.7195C26.1936 15.6005 26.0434 15.541 25.8621 15.541C25.6807 15.541 25.5306 15.6005 25.4116 15.7195C25.2926 15.8385 25.2331 15.9886 25.2331 16.17V17.564H23.8051C23.6351 17.5866 23.4934 17.6575 23.3801 17.7765C23.2667 17.8955 23.2101 18.04 23.2101 18.21C23.2101 18.38 23.2667 18.5216 23.3801 18.635C23.4934 18.7483 23.6294 18.8163 23.7881 18.839H25.2331V20.25C25.2331 20.42 25.2954 20.5673 25.4201 20.692C25.5447 20.8166 25.6921 20.879 25.8621 20.879C26.0321 20.879 26.1794 20.8166 26.3041 20.692C26.4287 20.5673 26.4911 20.42 26.4911 20.25V18.839H27.9361C28.0947 18.8163 28.2307 18.7455 28.3441 18.6265C28.4574 18.5075 28.5141 18.3686 28.5141 18.21C28.5141 18.0513 28.4574 17.9068 28.3441 17.7765C28.2307 17.6461 28.0947 17.5753 27.9361 17.564Z" fill="black" style="fill:black;fill-opacity:1;"/>
</g>
<defs>
<clipPath id="clip0_21_38">
<rect width="17" height="17" fill="white" style="fill:white;fill-opacity:1;" transform="matrix(1 0 0 -1 12.5 30.11)"/>
</clipPath>
</defs>
</svg>
