<svg width="21" height="21" viewBox="0 0 21 21" fill="none" xmlns="http://www.w3.org/2000/svg">
<path d="M16.8858 4.12997C16.4538 3.69797 15.9648 3.37097 15.4188 3.14897C14.8728 2.92697 14.2998 2.81597 13.6998 2.81597H13.6458C13.0098 2.81597 12.3978 2.98397 11.8098 3.31997C11.2218 3.65597 10.7118 4.11797 10.2798 4.70597C9.84785 4.11797 9.33785 3.65597 8.74985 3.31997C8.16185 2.98397 7.54985 2.81597 6.91385 2.81597H6.80585C5.96585 2.81597 5.19185 3.03797 4.48385 3.48197C3.77585 3.92597 3.21785 4.51997 2.80985 5.26397C2.40185 6.00797 2.20385 6.81197 2.21585 7.67597C2.21585 9.11597 2.77085 10.589 3.88085 12.095C4.99085 13.601 6.64385 15.122 8.83985 16.658L9.97385 17.414C10.0458 17.474 10.1478 17.504 10.2798 17.504C10.4118 17.504 10.5198 17.474 10.6038 17.414L11.7198 16.658C13.9158 15.11 15.5688 13.583 16.6788 12.077C17.7888 10.571 18.3438 9.10397 18.3438 7.67597V7.56797C18.3318 6.90797 18.1998 6.28397 17.9478 5.69597C17.6958 5.10797 17.3418 4.58597 16.8858 4.12997ZM10.2798 16.262L9.48785 15.74C7.47185 14.324 5.94185 12.932 4.89785 11.564C3.85385 10.196 3.33185 8.89397 3.33185 7.65797C3.33185 6.98597 3.48485 6.36797 3.79085 5.80397C4.09685 5.23997 4.51985 4.78697 5.05985 4.44497C5.59985 4.10297 6.18785 3.93197 6.82385 3.93197H6.89585C7.41185 3.94397 7.91285 4.11197 8.39885 4.43597C8.88485 4.75997 9.28985 5.19797 9.61385 5.74997L8.62385 7.42397C8.53985 7.54397 8.51285 7.67597 8.54285 7.81997C8.57285 7.96397 8.64185 8.08397 8.74985 8.17997L11.3958 10.16L8.69585 12.86C8.58785 12.968 8.53385 13.112 8.53385 13.292C8.53385 13.448 8.60585 13.586 8.74985 13.706L11.2878 15.596L11.0898 15.74L10.2798 16.262ZM17.2098 7.67597C17.2098 8.77997 16.7868 9.94097 15.9408 11.159C15.0948 12.377 13.8558 13.616 12.2238 14.876L9.95585 13.184L12.6558 10.484C12.7638 10.376 12.8178 10.232 12.8178 10.052C12.8178 9.97997 12.7968 9.90497 12.7548 9.82697C12.7128 9.74897 12.6558 9.68597 12.5838 9.63797L9.82985 7.56797L10.7298 6.10997C10.7298 6.08597 10.7418 6.06797 10.7658 6.05597L10.7838 6.03797C11.0958 5.40197 11.5158 4.89497 12.0438 4.51697C12.5718 4.13897 13.1118 3.94997 13.6638 3.94997H13.6998C14.1558 3.94997 14.5878 4.03397 14.9958 4.20197C15.4038 4.36997 15.7698 4.61597 16.0938 4.93997C16.4538 5.28797 16.7298 5.68697 16.9218 6.13697C17.1138 6.58697 17.2098 7.06997 17.2098 7.58597V7.67597Z" fill="#484A4D" style="fill:#484A4D;fill:color(display-p3 0.2824 0.2902 0.3020);fill-opacity:1;"/>
</svg>
