<svg width="11" height="11" viewBox="0 0 11 11" fill="none" xmlns="http://www.w3.org/2000/svg">
<g clip-path="url(#clip0_19_91)">
<path d="M10.2846 8.81997C9.9109 8.0533 9.38868 7.40497 8.71798 6.87497C8.04728 6.34497 7.29482 5.99664 6.46061 5.82997L6.42057 5.81997C6.84101 5.69997 7.21474 5.49997 7.54175 5.21997C7.86876 4.93997 8.12402 4.6033 8.30755 4.20997C8.49108 3.81664 8.58284 3.39997 8.58284 2.95997C8.58284 2.41997 8.44603 1.91997 8.17241 1.45997C7.91214 1.0133 7.55843 0.659971 7.1113 0.399971C6.65081 0.126638 6.15029 -0.0100291 5.60972 -0.0100291C5.06915 -0.0100291 4.56863 0.126638 4.10815 0.399971C3.66101 0.659971 3.30731 1.0133 3.04704 1.45997C2.77342 1.91997 2.6366 2.41997 2.6366 2.95997C2.6366 3.39997 2.72837 3.81497 2.91189 4.20497C3.09542 4.59497 3.34902 4.92997 3.67269 5.20997C3.99636 5.48997 4.36508 5.68997 4.77885 5.80997L4.79887 5.81997C3.94464 5.9933 3.18051 6.34164 2.50647 6.86497C1.83243 7.3883 1.30855 8.02997 0.934821 8.78997L0.924811 8.81997C0.871421 8.92664 0.844727 9.0433 0.844727 9.16997C0.844727 9.38997 0.921474 9.5783 1.07497 9.73497C1.22846 9.89164 1.41532 9.96997 1.63556 9.96997H9.58389C9.79744 9.9633 9.98097 9.8833 10.1345 9.72997C10.288 9.57664 10.3647 9.38997 10.3647 9.16997C10.3647 9.0433 10.338 8.92664 10.2846 8.81997Z" fill="#C7C8CC" style="fill:#C7C8CC;fill:color(display-p3 0.7804 0.7843 0.8000);fill-opacity:1;"/>
</g>
<defs>
<clipPath id="clip0_19_91">
<rect width="9.54" height="10" fill="white" style="fill:white;fill-opacity:1;" transform="matrix(1 0 0 -1 0.839844 10.22)"/>
</clipPath>
</defs>
</svg>
