<svg width="23" height="22" viewBox="0 0 23 22" fill="none" xmlns="http://www.w3.org/2000/svg">
<g clip-path="url(#clip0_19_389)">
<path d="M22.3078 19.932L15.9058 13.178C16.5511 12.43 17.0425 11.6013 17.3798 10.692C17.7465 9.75335 17.9298 8.77068 17.9298 7.74401C17.9298 6.24801 17.5485 4.85468 16.7858 3.56401C16.0525 2.31735 15.0625 1.32735 13.8158 0.594012C12.5251 -0.168654 11.1318 -0.549988 9.6358 -0.549988C8.1398 -0.549988 6.74646 -0.168654 5.4558 0.594012C4.20913 1.32735 3.21913 2.31735 2.4858 3.56401C1.72313 4.85468 1.3418 6.24801 1.3418 7.74401C1.3418 9.24001 1.72313 10.6333 2.4858 11.924C3.21913 13.1707 4.20913 14.1607 5.4558 14.894C6.74646 15.6567 8.1398 16.038 9.6358 16.038C10.5891 16.038 11.4985 15.8877 12.3638 15.587C13.2291 15.2863 14.0138 14.8573 14.7178 14.3L14.6958 14.322L21.0978 21.076C21.1711 21.1933 21.2701 21.285 21.3948 21.351C21.5195 21.417 21.6551 21.45 21.8018 21.45C22.0365 21.45 22.2345 21.3657 22.3958 21.197C22.5571 21.0283 22.6378 20.834 22.6378 20.614C22.6378 20.3353 22.5278 20.108 22.3078 19.932ZM3.1018 7.85401C3.1018 7.83935 3.1018 7.83201 3.1018 7.83201C3.1018 6.64401 3.40246 5.53668 4.0038 4.51001C4.5758 3.52735 5.35313 2.75001 6.3358 2.17801C7.36246 1.57668 8.4698 1.27601 9.6578 1.27601C10.8458 1.27601 11.9531 1.57668 12.9798 2.17801C13.9625 2.75001 14.7398 3.52735 15.3118 4.51001C15.9131 5.53668 16.2138 6.64401 16.2138 7.83201C16.2138 9.02001 15.9131 10.1273 15.3118 11.154C14.7398 12.1367 13.9625 12.914 12.9798 13.486C11.9531 14.0873 10.8458 14.388 9.6578 14.388C8.4698 14.388 7.3698 14.0873 6.3578 13.486C5.37513 12.914 4.59046 12.1367 4.0038 11.154C3.40246 10.142 3.1018 9.04201 3.1018 7.85401Z" fill="black" style="fill:black;fill-opacity:1;"/>
</g>
<defs>
<clipPath id="clip0_19_389">
<rect width="22.02" height="22" fill="white" style="fill:white;fill-opacity:1;" transform="matrix(1 0 0 -1 0.97998 22)"/>
</clipPath>
</defs>
</svg>
