<svg width="11" height="11" viewBox="0 0 11 11" fill="none" xmlns="http://www.w3.org/2000/svg">
<g clip-path="url(#clip0_19_62)">
<path d="M7.92008 0.299993H7.84008C7.61341 0.299993 7.35008 0.37666 7.05008 0.529993C6.77674 0.67666 6.50674 0.873326 6.24008 1.11999C5.97341 1.36666 5.75674 1.61999 5.59008 1.87999C5.41674 1.63333 5.20008 1.38999 4.94008 1.14999C4.66674 0.903326 4.39674 0.703326 4.13008 0.549993C3.83008 0.383326 3.56674 0.299993 3.34008 0.299993H3.26008C2.76008 0.299993 2.31674 0.43666 1.93008 0.709993C1.56341 0.963326 1.28008 1.31499 1.08008 1.76499C0.880078 2.21499 0.786745 2.71333 0.800078 3.25999C0.800078 4.15999 1.12674 5.08666 1.78008 6.03999C2.46674 7.03999 3.46008 7.98666 4.76008 8.87999L5.42008 9.33999C5.49341 9.39999 5.55008 9.42999 5.59008 9.42999C5.61008 9.42999 5.63841 9.41999 5.67508 9.39999C5.71174 9.37999 5.74008 9.35999 5.76008 9.33999L6.42008 8.87999C7.72674 7.97999 8.72008 7.04666 9.40008 6.07999C10.0534 5.14666 10.3801 4.23333 10.3801 3.33999C10.4134 2.81333 10.3301 2.31666 10.1301 1.84999C9.93008 1.38333 9.64341 1.01333 9.27008 0.739993C8.87008 0.44666 8.42008 0.299993 7.92008 0.299993Z" fill="#C7C8CC" style="fill:#C7C8CC;fill:color(display-p3 0.7804 0.7843 0.8000);fill-opacity:1;"/>
</g>
<defs>
<clipPath id="clip0_19_62">
<rect width="10" height="10" fill="white" style="fill:white;fill-opacity:1;" transform="matrix(1 0 0 -1 0.589844 10.11)"/>
</clipPath>
</defs>
</svg>
