<svg width="11" height="11" viewBox="0 0 11 11" fill="none" xmlns="http://www.w3.org/2000/svg">
<g clip-path="url(#clip0_2_1610)">
<path d="M7.91996 0.299993H7.83996C7.61329 0.299993 7.34996 0.37666 7.04996 0.529993C6.77662 0.67666 6.50662 0.873326 6.23996 1.11999C5.97329 1.36666 5.75662 1.61999 5.58996 1.87999C5.41662 1.63333 5.19996 1.38999 4.93996 1.14999C4.66662 0.903326 4.39662 0.703326 4.12996 0.549993C3.82996 0.383326 3.56662 0.299993 3.33996 0.299993H3.25996C2.75996 0.299993 2.31662 0.43666 1.92996 0.709993C1.56329 0.963326 1.27996 1.31499 1.07996 1.76499C0.879956 2.21499 0.786623 2.71333 0.799956 3.25999C0.799956 4.15999 1.12662 5.08666 1.77996 6.03999C2.46662 7.03999 3.45996 7.98666 4.75996 8.87999L5.41996 9.33999C5.49329 9.39999 5.54996 9.42999 5.58996 9.42999C5.60996 9.42999 5.63829 9.41999 5.67496 9.39999C5.71162 9.37999 5.73996 9.35999 5.75996 9.33999L6.41996 8.87999C7.72662 7.97999 8.71996 7.04666 9.39996 6.07999C10.0533 5.14666 10.38 4.23333 10.38 3.33999C10.4133 2.81333 10.33 2.31666 10.13 1.84999C9.92996 1.38333 9.64329 1.01333 9.26996 0.739993C8.86996 0.44666 8.41996 0.299993 7.91996 0.299993Z" fill="#C7C8CC" style="fill:#C7C8CC;fill:color(display-p3 0.7804 0.7843 0.8000);fill-opacity:1;"/>
</g>
<defs>
<clipPath id="clip0_2_1610">
<rect width="10" height="10" fill="white" style="fill:white;fill-opacity:1;" transform="matrix(1 0 0 -1 0.589966 10.11)"/>
</clipPath>
</defs>
</svg>
