<svg width="11" height="11" viewBox="0 0 11 11" fill="none" xmlns="http://www.w3.org/2000/svg">
<g clip-path="url(#clip0_2_1639)">
<path d="M10.2849 8.81997C9.91114 8.0533 9.38893 7.40497 8.71822 6.87497C8.04752 6.34497 7.29507 5.99664 6.46086 5.82997L6.42082 5.81997C6.84126 5.69997 7.21498 5.49997 7.54199 5.21997C7.869 4.93997 8.12427 4.6033 8.30779 4.20997C8.49132 3.81664 8.58308 3.39997 8.58308 2.95997C8.58308 2.41997 8.44627 1.91997 8.17265 1.45997C7.91238 1.0133 7.55868 0.659971 7.11154 0.399971C6.65106 0.126638 6.15053 -0.0100291 5.60997 -0.0100291C5.0694 -0.0100291 4.56887 0.126638 4.10839 0.399971C3.66126 0.659971 3.30755 1.0133 3.04728 1.45997C2.77366 1.91997 2.63685 2.41997 2.63685 2.95997C2.63685 3.39997 2.72861 3.81497 2.91214 4.20497C3.09566 4.59497 3.34926 4.92997 3.67294 5.20997C3.99661 5.48997 4.36533 5.68997 4.77909 5.80997L4.79912 5.81997C3.94489 5.9933 3.18075 6.34164 2.50671 6.86497C1.83267 7.3883 1.30879 8.02997 0.935065 8.78997L0.925055 8.81997C0.871665 8.92664 0.844971 9.0433 0.844971 9.16997C0.844971 9.38997 0.921718 9.5783 1.07521 9.73497C1.22871 9.89164 1.41557 9.96997 1.6358 9.96997H9.58413C9.79769 9.9633 9.98121 9.8833 10.1347 9.72997C10.2882 9.57664 10.365 9.38997 10.365 9.16997C10.365 9.0433 10.3383 8.92664 10.2849 8.81997Z" fill="#C7C8CC" style="fill:#C7C8CC;fill:color(display-p3 0.7804 0.7843 0.8000);fill-opacity:1;"/>
</g>
<defs>
<clipPath id="clip0_2_1639">
<rect width="9.54" height="10" fill="white" style="fill:white;fill-opacity:1;" transform="matrix(1 0 0 -1 0.839966 10.22)"/>
</clipPath>
</defs>
</svg>
