<svg width="11" height="11" viewBox="0 0 11 11" fill="none" xmlns="http://www.w3.org/2000/svg">
<g clip-path="url(#clip0_19_65)">
<path d="M10.2347 8.70999C9.86135 7.94332 9.33969 7.29499 8.66969 6.76499C7.99969 6.23499 7.24802 5.88665 6.41469 5.71999L6.37469 5.70999C6.79469 5.58999 7.16802 5.38999 7.49469 5.10999C7.82135 4.82999 8.07635 4.49332 8.25969 4.09999C8.44302 3.70665 8.53469 3.28999 8.53469 2.84999C8.53469 2.30999 8.39802 1.80999 8.12469 1.34999C7.86469 0.903319 7.51135 0.549986 7.06469 0.289986C6.60469 0.0166522 6.10469 -0.120014 5.56469 -0.120014C5.02469 -0.120014 4.52469 0.0166522 4.06469 0.289986C3.61802 0.549986 3.26469 0.903319 3.00469 1.34999C2.73135 1.80999 2.59469 2.30999 2.59469 2.84999C2.59469 3.28999 2.68635 3.70499 2.86969 4.09499C3.05302 4.48499 3.30635 4.81999 3.62969 5.09999C3.95302 5.37999 4.32135 5.57999 4.73469 5.69999L4.75469 5.70999C3.90135 5.88332 3.13802 6.23165 2.46469 6.75499C1.79135 7.27832 1.26802 7.91999 0.894687 8.67999L0.884687 8.70999C0.831354 8.81665 0.804688 8.93332 0.804688 9.05999C0.804688 9.27999 0.881354 9.46832 1.03469 9.62499C1.18802 9.78165 1.37469 9.85999 1.59469 9.85999H9.53469C9.74802 9.85332 9.93135 9.77332 10.0847 9.61999C10.238 9.46665 10.3147 9.27999 10.3147 9.05999C10.3147 8.93332 10.288 8.81665 10.2347 8.70999Z" fill="#C7C8CC" style="fill:#C7C8CC;fill:color(display-p3 0.7804 0.7843 0.8000);fill-opacity:1;"/>
</g>
<defs>
<clipPath id="clip0_19_65">
<rect width="9.53" height="10" fill="white" style="fill:white;fill-opacity:1;" transform="matrix(1 0 0 -1 0.799805 10.11)"/>
</clipPath>
</defs>
</svg>
