<svg width="14" height="15" viewBox="0 0 14 15" fill="none" xmlns="http://www.w3.org/2000/svg">
<g clip-path="url(#clip0_21_35)">
<path d="M13.4828 12.65C12.9601 11.5767 12.2298 10.669 11.2918 9.92701C10.3538 9.18501 9.30143 8.69734 8.13476 8.46401L8.07876 8.45001C8.66676 8.28201 9.18943 8.00201 9.64676 7.61001C10.1041 7.21801 10.4611 6.74668 10.7178 6.19601C10.9744 5.64534 11.1028 5.06201 11.1028 4.44601C11.1028 3.69001 10.9114 2.99001 10.5288 2.34601C10.1648 1.72068 9.6701 1.22601 9.04476 0.862009C8.40076 0.479343 7.70076 0.288009 6.94476 0.288009C6.18876 0.288009 5.48876 0.479343 4.84476 0.862009C4.21943 1.22601 3.72476 1.72068 3.36076 2.34601C2.9781 2.99001 2.78676 3.69001 2.78676 4.44601C2.78676 5.06201 2.9151 5.64301 3.17176 6.18901C3.42843 6.73501 3.7831 7.20401 4.23576 7.59601C4.68843 7.98801 5.2041 8.26801 5.78276 8.43601L5.81076 8.45001C4.6161 8.69268 3.54743 9.18034 2.60476 9.91301C1.6621 10.6457 0.929428 11.544 0.406762 12.608L0.392762 12.65C0.318095 12.7993 0.280762 12.9627 0.280762 13.14C0.280762 13.448 0.388095 13.7117 0.602762 13.931C0.817428 14.1503 1.07876 14.26 1.38676 14.26H12.5028C12.8014 14.2507 13.0581 14.1387 13.2728 13.924C13.4874 13.7093 13.5948 13.448 13.5948 13.14C13.5948 12.9627 13.5574 12.7993 13.4828 12.65Z" fill="#888A8D" style="fill:#888A8D;fill:color(display-p3 0.5333 0.5412 0.5529);fill-opacity:1;"/>
</g>
<defs>
<clipPath id="clip0_21_35">
<rect width="13.33" height="14" fill="white" style="fill:white;fill-opacity:1;" transform="matrix(1 0 0 -1 0.279785 14.61)"/>
</clipPath>
</defs>
</svg>
