<svg width="17" height="17" viewBox="0 0 17 17" fill="none" xmlns="http://www.w3.org/2000/svg">
<g clip-path="url(#clip0_2_1855)">
<path d="M15.786 6.77809L12.602 1.25809C12.4527 1.01276 12.2527 0.815426 12.002 0.666093C11.7513 0.51676 11.482 0.442093 11.194 0.442093H4.82601C4.52734 0.442093 4.25268 0.51676 4.00201 0.666093C3.75134 0.815426 3.55668 1.01276 3.41801 1.25809H3.40201L0.21801 6.77809C0.0793431 7.03409 0.0100098 7.30609 0.0100098 7.59409C0.0100098 7.88209 0.0846764 8.15943 0.23401 8.42609L0.21801 8.41009L3.40201 13.9301C3.55134 14.1754 3.75134 14.3728 4.00201 14.5221C4.25268 14.6714 4.52734 14.7461 4.82601 14.7461H6.29801L6.47401 11.7861C5.67401 11.4661 5.02601 10.9488 4.53001 10.2341C4.03401 9.51943 3.78601 8.72476 3.78601 7.85009C3.78601 7.06076 3.98601 6.33809 4.38601 5.68209C4.78601 5.02609 5.32201 4.51676 5.99401 4.15409L6.01001 4.13809L6.33001 7.78609L8.01001 8.65009L9.65801 7.78609L10.01 4.13809C10.682 4.50076 11.2207 5.01276 11.626 5.67409C12.0313 6.33543 12.234 7.06076 12.234 7.85009C12.234 8.72476 11.986 9.51943 11.49 10.2341C10.994 10.9488 10.3513 11.4608 9.56201 11.7701L9.53001 11.7861L9.72201 14.7461H11.194C11.482 14.7461 11.7513 14.6714 12.002 14.5221C12.2527 14.3728 12.4527 14.1754 12.602 13.9301L15.786 8.41009C15.9353 8.16476 16.01 7.89543 16.01 7.60209C16.01 7.30876 15.9353 7.02876 15.786 6.76209V6.77809Z" fill="#F54F4F" style="fill:#F54F4F;fill:color(display-p3 0.9608 0.3098 0.3098);fill-opacity:1;"/>
</g>
<defs>
<clipPath id="clip0_2_1855">
<rect width="16.02" height="16" fill="white" style="fill:white;fill-opacity:1;" transform="matrix(1 0 0 -1 0 16.0901)"/>
</clipPath>
</defs>
</svg>
