<svg width="18" height="19" viewBox="0 0 18 19" fill="none" xmlns="http://www.w3.org/2000/svg">
<path d="M9.00006 16.504C8.86806 16.504 8.76606 16.474 8.69406 16.414L7.56006 15.658C5.36406 14.11 3.71106 12.583 2.60106 11.077C1.49106 9.57097 0.936061 8.09797 0.936061 6.65797C0.924061 5.79397 1.12206 4.99297 1.53006 4.25497C1.93806 3.51697 2.49006 2.93197 3.18606 2.49997C3.90606 2.04397 4.68606 1.81597 5.52606 1.81597H5.63406C6.27006 1.81597 6.88206 1.98397 7.47006 2.31997C8.05806 2.65597 8.56806 3.11797 9.00006 3.70597C9.43206 3.11797 9.94206 2.65597 10.5301 2.31997C11.1181 1.98397 11.7271 1.81297 12.3571 1.80697C12.9871 1.80097 13.5841 1.91497 14.1481 2.14897C14.7121 2.38297 15.2191 2.72497 15.6691 3.17497C16.1191 3.62497 16.4611 4.14397 16.6951 4.73197C16.9291 5.31997 17.0521 5.93197 17.0641 6.56797V6.65797C17.0641 8.09797 16.5091 9.57097 15.3991 11.077C14.2891 12.583 12.6361 14.104 10.4401 15.64L9.32406 16.414C9.24006 16.474 9.13206 16.504 9.00006 16.504ZM5.61606 2.93197H5.54406C4.90806 2.93197 4.32006 3.10297 3.78006 3.44497C3.24006 3.78697 2.81706 4.23997 2.51106 4.80397C2.20506 5.36797 2.05806 5.98597 2.07006 6.65797C2.07006 7.89397 2.59206 9.19597 3.63606 10.564C4.68006 11.932 6.20406 13.324 8.20806 14.74L9.00006 15.262L9.81006 14.722C11.8141 13.306 13.3351 11.917 14.3731 10.555C15.4111 9.19297 15.9301 7.89997 15.9301 6.67597V6.58597C15.9301 6.09397 15.8401 5.62297 15.6601 5.17297C15.4801 4.72297 15.2161 4.32397 14.8681 3.97597C14.5441 3.63997 14.1691 3.38497 13.7431 3.21097C13.3171 3.03697 12.8761 2.94997 12.4201 2.94997H12.3841C11.8321 2.94997 11.2921 3.13897 10.7641 3.51697C10.2361 3.89497 9.81606 4.40197 9.50406 5.03797C9.44406 5.15797 9.34506 5.24197 9.20706 5.28997C9.06906 5.33797 8.93106 5.33797 8.79306 5.28997C8.65506 5.24197 8.55606 5.15797 8.49606 5.03797C8.18406 4.40197 7.76706 3.89497 7.24506 3.51697C6.72306 3.13897 6.18006 2.94397 5.61606 2.93197Z" fill="#484A4D" style="fill:#484A4D;fill:color(display-p3 0.2824 0.2902 0.3020);fill-opacity:1;"/>
</svg>
