<svg width="23" height="22" viewBox="0 0 23 22" fill="none" xmlns="http://www.w3.org/2000/svg">
<g clip-path="url(#clip0_2_4259)">
<path d="M22.308 19.932L15.906 13.178C16.5514 12.43 17.0427 11.6013 17.38 10.692C17.7467 9.75333 17.93 8.77066 17.93 7.744C17.93 6.248 17.5487 4.85466 16.786 3.564C16.0527 2.31733 15.0627 1.32733 13.816 0.593997C12.5254 -0.16867 11.132 -0.550003 9.63604 -0.550003C8.14004 -0.550003 6.74671 -0.16867 5.45604 0.593997C4.20937 1.32733 3.21937 2.31733 2.48604 3.564C1.72337 4.85466 1.34204 6.248 1.34204 7.744C1.34204 9.24 1.72337 10.6333 2.48604 11.924C3.21937 13.1707 4.20937 14.1607 5.45604 14.894C6.74671 15.6567 8.14004 16.038 9.63604 16.038C10.5894 16.038 11.4987 15.8877 12.364 15.587C13.2294 15.2863 14.014 14.8573 14.718 14.3L14.696 14.322L21.098 21.076C21.1714 21.1933 21.2704 21.285 21.395 21.351C21.5197 21.417 21.6554 21.45 21.802 21.45C22.0367 21.45 22.2347 21.3657 22.396 21.197C22.5574 21.0283 22.638 20.834 22.638 20.614C22.638 20.3353 22.528 20.108 22.308 19.932ZM3.10204 7.854C3.10204 7.83933 3.10204 7.832 3.10204 7.832C3.10204 6.644 3.40271 5.53666 4.00404 4.51C4.57604 3.52733 5.35337 2.75 6.33604 2.178C7.36271 1.57666 8.47004 1.276 9.65804 1.276C10.846 1.276 11.9534 1.57666 12.98 2.178C13.9627 2.75 14.74 3.52733 15.312 4.51C15.9134 5.53666 16.214 6.644 16.214 7.832C16.214 9.02 15.9134 10.1273 15.312 11.154C14.74 12.1367 13.9627 12.914 12.98 13.486C11.9534 14.0873 10.846 14.388 9.65804 14.388C8.47004 14.388 7.37004 14.0873 6.35804 13.486C5.37537 12.914 4.59071 12.1367 4.00404 11.154C3.40271 10.142 3.10204 9.042 3.10204 7.854Z" fill="black" style="fill:black;fill-opacity:1;"/>
</g>
<defs>
<clipPath id="clip0_2_4259">
<rect width="22.02" height="22" fill="white" style="fill:white;fill-opacity:1;" transform="matrix(1 0 0 -1 0.97998 22)"/>
</clipPath>
</defs>
</svg>
