<svg width="11" height="11" viewBox="0 0 11 11" fill="none" xmlns="http://www.w3.org/2000/svg">
<g clip-path="url(#clip0_2_1613)">
<path d="M10.2349 8.70999C9.8616 7.94332 9.33993 7.29499 8.66993 6.76499C7.99993 6.23499 7.24826 5.88665 6.41493 5.71999L6.37493 5.70999C6.79493 5.58999 7.16826 5.38999 7.49493 5.10999C7.8216 4.82999 8.0766 4.49332 8.25993 4.09999C8.44326 3.70665 8.53493 3.28999 8.53493 2.84999C8.53493 2.30999 8.39826 1.80999 8.12493 1.34999C7.86493 0.903319 7.5116 0.549986 7.06493 0.289986C6.60493 0.0166522 6.10493 -0.120014 5.56493 -0.120014C5.02493 -0.120014 4.52493 0.0166522 4.06493 0.289986C3.61826 0.549986 3.26493 0.903319 3.00493 1.34999C2.7316 1.80999 2.59493 2.30999 2.59493 2.84999C2.59493 3.28999 2.6866 3.70499 2.86993 4.09499C3.05326 4.48499 3.3066 4.81999 3.62993 5.09999C3.95326 5.37999 4.3216 5.57999 4.73493 5.69999L4.75493 5.70999C3.9016 5.88332 3.13826 6.23165 2.46493 6.75499C1.7916 7.27832 1.26826 7.91999 0.894932 8.67999L0.884932 8.70999C0.831598 8.81665 0.804932 8.93332 0.804932 9.05999C0.804932 9.27999 0.881598 9.46832 1.03493 9.62499C1.18826 9.78165 1.37493 9.85999 1.59493 9.85999H9.53493C9.74826 9.85332 9.9316 9.77332 10.0849 9.61999C10.2383 9.46665 10.3149 9.27999 10.3149 9.05999C10.3149 8.93332 10.2883 8.81665 10.2349 8.70999Z" fill="#C7C8CC" style="fill:#C7C8CC;fill:color(display-p3 0.7804 0.7843 0.8000);fill-opacity:1;"/>
</g>
<defs>
<clipPath id="clip0_2_1613">
<rect width="9.53" height="10" fill="white" style="fill:white;fill-opacity:1;" transform="matrix(1 0 0 -1 0.799927 10.11)"/>
</clipPath>
</defs>
</svg>
