<svg width="21" height="21" viewBox="0 0 21 21" fill="none" xmlns="http://www.w3.org/2000/svg">
<g clip-path="url(#clip0_21_103)">
<path d="M10.2699 0.820015C8.61653 0.820015 7.07653 1.24002 5.64986 2.08002C4.2632 2.88002 3.16986 3.97335 2.36986 5.36001C1.52986 6.78668 1.10986 8.32668 1.10986 9.98001C1.10986 11.6333 1.52986 13.1733 2.36986 14.6C3.16986 15.9867 4.2632 17.08 5.64986 17.88C7.07653 18.72 8.61653 19.14 10.2699 19.14C11.9232 19.14 13.4632 18.72 14.8899 17.88C16.2765 17.08 17.3699 15.9867 18.1699 14.6C19.0099 13.1733 19.4299 11.6333 19.4299 9.98001C19.4299 8.32668 19.0099 6.78668 18.1699 5.36001C17.3699 3.97335 16.2765 2.88002 14.8899 2.08002C13.4632 1.24002 11.9232 0.820015 10.2699 0.820015ZM8.18986 13.62V6.32001L14.0299 9.98001L8.18986 13.62Z" fill="white" style="fill:white;fill-opacity:1;"/>
</g>
<defs>
<clipPath id="clip0_21_103">
<rect width="20" height="20" fill="white" style="fill:white;fill-opacity:1;" transform="matrix(1 0 0 -1 0.27002 20.48)"/>
</clipPath>
</defs>
</svg>
