<svg width="13" height="13" viewBox="0 0 13 13" fill="none" xmlns="http://www.w3.org/2000/svg">
<g clip-path="url(#clip0_2_1705)">
<g clip-path="url(#clip1_2_1705)">
<path d="M12.0119 5.91998L10.5239 4.47198C10.3959 4.34398 10.3079 4.19198 10.2599 4.01598L9.7479 1.99998C9.6199 1.48798 9.0919 1.17598 8.5799 1.30398C8.5719 1.30398 8.5639 1.30398 8.5559 1.30398L6.5559 1.87198C6.3879 1.91998 6.2039 1.91998 6.0359 1.87198L4.0359 1.31998C3.5239 1.17598 2.9959 1.47198 2.8519 1.98398C2.8519 1.99198 2.8519 1.99998 2.8519 2.00798L2.34791 4.02398C2.30791 4.19998 2.21191 4.35198 2.08391 4.47998L0.595911 5.92798C0.21991 6.29598 0.21191 6.90398 0.579911 7.28798C0.579911 7.28798 0.587911 7.29598 0.595911 7.30398L2.08391 8.75198C2.21191 8.87998 2.29991 9.03198 2.34791 9.20798L2.8519 11.224C2.9799 11.736 3.5079 12.048 4.0199 11.92C4.0279 11.92 4.0359 11.92 4.0439 11.92L6.0439 11.352C6.2119 11.304 6.3959 11.304 6.5639 11.352L8.5639 11.92C9.0759 12.064 9.6039 11.768 9.7479 11.256C9.7479 11.248 9.7479 11.24 9.7479 11.232L10.2599 9.21598C10.2999 9.03998 10.3959 8.88798 10.5239 8.75998L12.0119 7.31198C12.3879 6.94398 12.3959 6.33598 12.0279 5.95198C12.0279 5.95198 12.0199 5.94398 12.0119 5.93598" fill="#2A31FF" style="fill:#2A31FF;fill:color(display-p3 0.1647 0.1922 1.0000);fill-opacity:1;"/>
<path d="M5.13986 9.21591C5.01986 9.21591 4.97986 9.17591 4.97986 9.05591V4.77591C4.97986 4.65591 5.01986 4.61591 5.13986 4.61591H7.16386C8.47586 4.61591 8.64386 5.26391 8.64386 5.82391V6.67188C8.64386 7.23188 8.47586 7.87991 7.16386 7.87991H6.32386V9.05591C6.32386 9.17591 6.28386 9.21591 6.16386 9.21591H5.13986ZM6.30786 6.84791H6.97986C7.23586 6.84791 7.37186 6.71191 7.37186 6.44791V6.09591C7.37186 5.83191 7.24386 5.69591 6.97986 5.69591H6.30786V6.85588V6.84791Z" fill="white" style="fill:white;fill-opacity:1;"/>
</g>
</g>
<defs>
<clipPath id="clip0_2_1705">
<rect width="12" height="12" fill="white" style="fill:white;fill-opacity:1;" transform="translate(0.299927 0.47998)"/>
</clipPath>
<clipPath id="clip1_2_1705">
<rect width="12" height="12" fill="white" style="fill:white;fill-opacity:1;" transform="translate(0.299927 0.47998)"/>
</clipPath>
</defs>
</svg>
