<svg width="15" height="16" viewBox="0 0 15 16" fill="none" xmlns="http://www.w3.org/2000/svg">
<g clip-path="url(#clip0_21_20)">
<g clip-path="url(#clip1_21_20)">
<path d="M14.6401 7.64006L12.7801 5.83006C12.6201 5.67006 12.5101 5.48006 12.4501 5.26006L11.8101 2.74006C11.6501 2.10006 10.9901 1.71006 10.3501 1.87006C10.3401 1.87006 10.3301 1.87006 10.3201 1.87006L7.82006 2.58006C7.61006 2.64006 7.38006 2.64006 7.17006 2.58006L4.67006 1.89006C4.03006 1.71006 3.37006 2.08006 3.19006 2.72006C3.19006 2.73006 3.19006 2.74006 3.19006 2.75006L2.56007 5.27006C2.51007 5.49006 2.39007 5.68006 2.23007 5.84006L0.370072 7.65006C-0.0999291 8.11006 -0.109929 8.87006 0.350072 9.35006C0.350072 9.35006 0.360072 9.36006 0.370072 9.37006L2.23007 11.1801C2.39007 11.3401 2.50007 11.5301 2.56007 11.7501L3.19006 14.2701C3.35006 14.9101 4.01006 15.3001 4.65006 15.1401C4.66006 15.1401 4.67006 15.1401 4.68006 15.1401L7.18006 14.4301C7.39006 14.3701 7.62006 14.3701 7.83006 14.4301L10.3301 15.1401C10.9701 15.3201 11.6301 14.9501 11.8101 14.3101C11.8101 14.3001 11.8101 14.2901 11.8101 14.2801L12.4501 11.7601C12.5001 11.5401 12.6201 11.3501 12.7801 11.1901L14.6401 9.38006C15.1101 8.92006 15.1201 8.16006 14.6601 7.68006C14.6601 7.68006 14.6501 7.67006 14.6401 7.66006" fill="#2A31FF" style="fill:#2A31FF;fill:color(display-p3 0.1647 0.1922 1.0000);fill-opacity:1;"/>
<path d="M6.0501 11.7599C5.9001 11.7599 5.8501 11.7099 5.8501 11.5599V6.20995C5.8501 6.05995 5.9001 6.00995 6.0501 6.00995H8.5801C10.2201 6.00995 10.4301 6.81995 10.4301 7.51995V8.57992C10.4301 9.27992 10.2201 10.0899 8.5801 10.0899H7.5301V11.5599C7.5301 11.7099 7.4801 11.7599 7.3301 11.7599H6.0501ZM7.5101 8.79995H8.3501C8.6701 8.79995 8.8401 8.62995 8.8401 8.29995V7.85995C8.8401 7.52995 8.6801 7.35995 8.3501 7.35995H7.5101V8.80992V8.79995Z" fill="white" style="fill:white;fill-opacity:1;"/>
</g>
</g>
<defs>
<clipPath id="clip0_21_20">
<rect width="15" height="15" fill="white" style="fill:white;fill-opacity:1;" transform="translate(0 0.840027)"/>
</clipPath>
<clipPath id="clip1_21_20">
<rect width="15" height="15" fill="white" style="fill:white;fill-opacity:1;" transform="translate(0 0.840027)"/>
</clipPath>
</defs>
</svg>
