<svg width="13" height="13" viewBox="0 0 13 13" fill="none" xmlns="http://www.w3.org/2000/svg">
<g clip-path="url(#clip0_19_53)">
<g clip-path="url(#clip1_19_53)">
<path d="M12.2719 5.48999L10.7839 4.04199C10.6559 3.91399 10.5679 3.76199 10.5199 3.58599L10.0079 1.56999C9.87991 1.05799 9.35191 0.74599 8.83991 0.87399C8.83191 0.87399 8.82391 0.87399 8.81591 0.87399L6.81591 1.44199C6.64791 1.48999 6.46391 1.48999 6.29591 1.44199L4.29591 0.88999C3.78391 0.74599 3.25591 1.04199 3.11191 1.55399C3.11191 1.56199 3.11191 1.56999 3.11191 1.57799L2.60792 3.59399C2.56792 3.76999 2.47192 3.92199 2.34392 4.04999L0.855921 5.49799C0.47992 5.86599 0.47192 6.47399 0.839921 6.85799C0.839921 6.85799 0.847921 6.86599 0.855921 6.87399L2.34392 8.32199C2.47192 8.44999 2.55992 8.60199 2.60792 8.77799L3.11191 10.794C3.23991 11.306 3.76791 11.618 4.27991 11.49C4.28791 11.49 4.29591 11.49 4.30391 11.49L6.30391 10.922C6.47191 10.874 6.65591 10.874 6.82391 10.922L8.82391 11.49C9.33591 11.634 9.86391 11.338 10.0079 10.826C10.0079 10.818 10.0079 10.81 10.0079 10.802L10.5199 8.78599C10.5599 8.60999 10.6559 8.45799 10.7839 8.32999L12.2719 6.88199C12.6479 6.51399 12.6559 5.90599 12.2879 5.52199C12.2879 5.52199 12.2799 5.51399 12.2719 5.50599" fill="#2A31FF" style="fill:#2A31FF;fill:color(display-p3 0.1647 0.1922 1.0000);fill-opacity:1;"/>
<path d="M5.40023 8.78591C5.28023 8.78591 5.24023 8.74591 5.24023 8.62591V4.34591C5.24023 4.22591 5.28023 4.18591 5.40023 4.18591H7.42423C8.73623 4.18591 8.90423 4.83391 8.90423 5.39391V6.24189C8.90423 6.80189 8.73623 7.44991 7.42423 7.44991H6.58423V8.62591C6.58423 8.74591 6.54423 8.78591 6.42423 8.78591H5.40023ZM6.56823 6.41791H7.24023C7.49623 6.41791 7.63223 6.28191 7.63223 6.01791V5.66591C7.63223 5.40191 7.50423 5.26591 7.24023 5.26591H6.56823V6.42589V6.41791Z" fill="white" style="fill:white;fill-opacity:1;"/>
</g>
</g>
<defs>
<clipPath id="clip0_19_53">
<rect width="12" height="12" fill="white" style="fill:white;fill-opacity:1;" transform="translate(0.560059 0.0499878)"/>
</clipPath>
<clipPath id="clip1_19_53">
<rect width="12" height="12" fill="white" style="fill:white;fill-opacity:1;" transform="translate(0.560059 0.0499878)"/>
</clipPath>
</defs>
</svg>
