<svg width="13" height="13" viewBox="0 0 13 13" fill="none" xmlns="http://www.w3.org/2000/svg">
<g clip-path="url(#clip0_2_1653)">
<g clip-path="url(#clip1_2_1653)">
<path d="M12.592 5.71002L11.104 4.26202C10.976 4.13402 10.888 3.98202 10.84 3.80602L10.328 1.79002C10.2 1.27802 9.67198 0.966021 9.15998 1.09402C9.15198 1.09402 9.14398 1.09402 9.13598 1.09402L7.13598 1.66202C6.96798 1.71002 6.78398 1.71002 6.61598 1.66202L4.61598 1.11002C4.10398 0.966021 3.57598 1.26202 3.43198 1.77402C3.43198 1.78202 3.43198 1.79002 3.43198 1.79802L2.92799 3.81402C2.88799 3.99002 2.79199 4.14202 2.66399 4.27002L1.17599 5.71802C0.799988 6.08602 0.791988 6.69402 1.15999 7.07802C1.15999 7.07802 1.16799 7.08602 1.17599 7.09402L2.66399 8.54202C2.79199 8.67002 2.87999 8.82202 2.92799 8.99802L3.43198 11.014C3.55998 11.526 4.08798 11.838 4.59998 11.71C4.60798 11.71 4.61598 11.71 4.62398 11.71L6.62398 11.142C6.79198 11.094 6.97598 11.094 7.14398 11.142L9.14398 11.71C9.65598 11.854 10.184 11.558 10.328 11.046C10.328 11.038 10.328 11.03 10.328 11.022L10.84 9.00602C10.88 8.83002 10.976 8.67802 11.104 8.55002L12.592 7.10202C12.968 6.73402 12.976 6.12602 12.608 5.74202C12.608 5.74202 12.6 5.73402 12.592 5.72602" fill="#2A31FF" style="fill:#2A31FF;fill:color(display-p3 0.1647 0.1922 1.0000);fill-opacity:1;"/>
<path d="M5.71994 9.00595C5.59994 9.00595 5.55994 8.96594 5.55994 8.84594V4.56594C5.55994 4.44594 5.59994 4.40594 5.71994 4.40594H7.74394C9.05594 4.40594 9.22394 5.05394 9.22394 5.61394V6.46192C9.22394 7.02192 9.05594 7.66994 7.74394 7.66994H6.90394V8.84594C6.90394 8.96594 6.86394 9.00595 6.74394 9.00595H5.71994ZM6.88794 6.63794H7.55994C7.81594 6.63794 7.95194 6.50194 7.95194 6.23794V5.88594C7.95194 5.62194 7.82394 5.48594 7.55994 5.48594H6.88794V6.64592V6.63794Z" fill="white" style="fill:white;fill-opacity:1;"/>
</g>
</g>
<defs>
<clipPath id="clip0_2_1653">
<rect width="12" height="12" fill="white" style="fill:white;fill-opacity:1;" transform="translate(0.880005 0.269989)"/>
</clipPath>
<clipPath id="clip1_2_1653">
<rect width="12" height="12" fill="white" style="fill:white;fill-opacity:1;" transform="translate(0.880005 0.269989)"/>
</clipPath>
</defs>
</svg>
