<svg width="13" height="13" viewBox="0 0 13 13" fill="none" xmlns="http://www.w3.org/2000/svg">
<g clip-path="url(#clip0_2_1627)">
<g clip-path="url(#clip1_2_1627)">
<path d="M12.5419 5.6L11.0539 4.152C10.9259 4.024 10.8379 3.872 10.7899 3.696L10.2779 1.68001C10.1499 1.16801 9.62193 0.856005 9.10993 0.984005C9.10193 0.984005 9.09393 0.984005 9.08593 0.984005L7.08593 1.55201C6.91793 1.60001 6.73393 1.60001 6.56593 1.55201L4.56593 1.00001C4.05393 0.856005 3.52593 1.15201 3.38193 1.66401C3.38193 1.67201 3.38193 1.68001 3.38193 1.68801L2.87794 3.704C2.83794 3.88 2.74194 4.032 2.61394 4.16L1.12594 5.608C0.74994 5.976 0.74194 6.584 1.10994 6.968C1.10994 6.968 1.11794 6.976 1.12594 6.984L2.61394 8.432C2.74194 8.56 2.82994 8.712 2.87794 8.888L3.38193 10.904C3.50993 11.416 4.03793 11.728 4.54993 11.6C4.55793 11.6 4.56593 11.6 4.57393 11.6L6.57393 11.032C6.74193 10.984 6.92593 10.984 7.09393 11.032L9.09393 11.6C9.60593 11.744 10.1339 11.448 10.2779 10.936C10.2779 10.928 10.2779 10.92 10.2779 10.912L10.7899 8.896C10.8299 8.72 10.9259 8.568 11.0539 8.44L12.5419 6.992C12.9179 6.624 12.9259 6.016 12.5579 5.632C12.5579 5.632 12.5499 5.624 12.5419 5.616" fill="#2A31FF" style="fill:#2A31FF;fill:color(display-p3 0.1647 0.1922 1.0000);fill-opacity:1;"/>
<path d="M5.66989 8.89593C5.54989 8.89593 5.50989 8.85593 5.50989 8.73593V4.45593C5.50989 4.33593 5.54989 4.29593 5.66989 4.29593H7.69389C9.00589 4.29593 9.17389 4.94393 9.17389 5.50393V6.3519C9.17389 6.9119 9.00589 7.55993 7.69389 7.55993H6.85389V8.73593C6.85389 8.85593 6.81389 8.89593 6.69389 8.89593H5.66989ZM6.83789 6.52793H7.50989C7.76589 6.52793 7.90189 6.39193 7.90189 6.12793V5.77593C7.90189 5.51193 7.77389 5.37593 7.50989 5.37593H6.83789V6.5359V6.52793Z" fill="white" style="fill:white;fill-opacity:1;"/>
</g>
</g>
<defs>
<clipPath id="clip0_2_1627">
<rect width="12" height="12" fill="white" style="fill:white;fill-opacity:1;" transform="translate(0.829956 0.159973)"/>
</clipPath>
<clipPath id="clip1_2_1627">
<rect width="12" height="12" fill="white" style="fill:white;fill-opacity:1;" transform="translate(0.829956 0.159973)"/>
</clipPath>
</defs>
</svg>
