<svg width="13" height="13" viewBox="0 0 13 13" fill="none" xmlns="http://www.w3.org/2000/svg">
<g clip-path="url(#clip0_19_79)">
<g clip-path="url(#clip1_19_79)">
<path d="M12.5419 5.59997L11.0539 4.15197C10.9259 4.02397 10.8379 3.87197 10.7899 3.69597L10.2779 1.67997C10.1499 1.16797 9.62193 0.855975 9.10993 0.983975C9.10193 0.983975 9.09393 0.983975 9.08593 0.983975L7.08593 1.55197C6.91793 1.59997 6.73393 1.59997 6.56593 1.55197L4.56593 0.999975C4.05393 0.855975 3.52593 1.15197 3.38193 1.66397C3.38193 1.67197 3.38193 1.67997 3.38193 1.68797L2.87794 3.70397C2.83794 3.87997 2.74194 4.03197 2.61394 4.15997L1.12594 5.60797C0.74994 5.97597 0.74194 6.58397 1.10994 6.96797C1.10994 6.96797 1.11794 6.97597 1.12594 6.98397L2.61394 8.43197C2.74194 8.55997 2.82994 8.71197 2.87794 8.88797L3.38193 10.904C3.50993 11.416 4.03793 11.728 4.54993 11.6C4.55793 11.6 4.56593 11.6 4.57393 11.6L6.57393 11.032C6.74193 10.984 6.92593 10.984 7.09393 11.032L9.09393 11.6C9.60593 11.744 10.1339 11.448 10.2779 10.936C10.2779 10.928 10.2779 10.92 10.2779 10.912L10.7899 8.89597C10.8299 8.71997 10.9259 8.56797 11.0539 8.43997L12.5419 6.99197C12.9179 6.62397 12.9259 6.01597 12.5579 5.63197C12.5579 5.63197 12.5499 5.62397 12.5419 5.61597" fill="#2A31FF" style="fill:#2A31FF;fill:color(display-p3 0.1647 0.1922 1.0000);fill-opacity:1;"/>
<path d="M5.67025 8.8959C5.55025 8.8959 5.51025 8.8559 5.51025 8.7359V4.4559C5.51025 4.3359 5.55025 4.2959 5.67025 4.2959H7.69425C9.00625 4.2959 9.17425 4.9439 9.17425 5.5039V6.35187C9.17425 6.91187 9.00625 7.5599 7.69425 7.5599H6.85425V8.7359C6.85425 8.8559 6.81425 8.8959 6.69425 8.8959H5.67025ZM6.83825 6.5279H7.51025C7.76625 6.5279 7.90225 6.3919 7.90225 6.1279V5.7759C7.90225 5.5119 7.77425 5.3759 7.51025 5.3759H6.83825V6.53587V6.5279Z" fill="white" style="fill:white;fill-opacity:1;"/>
</g>
</g>
<defs>
<clipPath id="clip0_19_79">
<rect width="12" height="12" fill="white" style="fill:white;fill-opacity:1;" transform="translate(0.830078 0.159973)"/>
</clipPath>
<clipPath id="clip1_19_79">
<rect width="12" height="12" fill="white" style="fill:white;fill-opacity:1;" transform="translate(0.830078 0.159973)"/>
</clipPath>
</defs>
</svg>
