<svg width="13" height="13" viewBox="0 0 13 13" fill="none" xmlns="http://www.w3.org/2000/svg">
<g clip-path="url(#clip0_2_1601)">
<g clip-path="url(#clip1_2_1601)">
<path d="M12.2719 5.49002L10.7839 4.04202C10.6559 3.91402 10.5679 3.76202 10.5199 3.58602L10.0079 1.57002C9.87991 1.05802 9.35191 0.74602 8.83991 0.87402C8.83191 0.87402 8.82391 0.87402 8.81591 0.87402L6.81591 1.44202C6.64791 1.49002 6.46391 1.49002 6.29591 1.44202L4.29591 0.89002C3.78391 0.74602 3.25591 1.04202 3.11191 1.55402C3.11191 1.56202 3.11191 1.57002 3.11191 1.57802L2.60792 3.59402C2.56792 3.77002 2.47192 3.92202 2.34392 4.05002L0.855921 5.49802C0.47992 5.86602 0.47192 6.47402 0.839921 6.85802C0.839921 6.85802 0.847921 6.86602 0.855921 6.87402L2.34392 8.32202C2.47192 8.45002 2.55992 8.60202 2.60792 8.77802L3.11191 10.794C3.23991 11.306 3.76791 11.618 4.27991 11.49C4.28791 11.49 4.29591 11.49 4.30391 11.49L6.30391 10.922C6.47191 10.874 6.65591 10.874 6.82391 10.922L8.82391 11.49C9.33591 11.634 9.86391 11.338 10.0079 10.826C10.0079 10.818 10.0079 10.81 10.0079 10.802L10.5199 8.78602C10.5599 8.61002 10.6559 8.45802 10.7839 8.33002L12.2719 6.88202C12.6479 6.51402 12.6559 5.90602 12.2879 5.52202C12.2879 5.52202 12.2799 5.51402 12.2719 5.50602" fill="#2A31FF" style="fill:#2A31FF;fill:color(display-p3 0.1647 0.1922 1.0000);fill-opacity:1;"/>
<path d="M5.39987 8.78594C5.27987 8.78594 5.23987 8.74594 5.23987 8.62594V4.34594C5.23987 4.22594 5.27987 4.18594 5.39987 4.18594H7.42387C8.73587 4.18594 8.90387 4.83394 8.90387 5.39394V6.24192C8.90387 6.80192 8.73587 7.44994 7.42387 7.44994H6.58387V8.62594C6.58387 8.74594 6.54387 8.78594 6.42387 8.78594H5.39987ZM6.56787 6.41794H7.23987C7.49587 6.41794 7.63187 6.28194 7.63187 6.01794V5.66594C7.63187 5.40194 7.50387 5.26594 7.23987 5.26594H6.56787V6.42592V6.41794Z" fill="white" style="fill:white;fill-opacity:1;"/>
</g>
</g>
<defs>
<clipPath id="clip0_2_1601">
<rect width="12" height="12" fill="white" style="fill:white;fill-opacity:1;" transform="translate(0.559937 0.0499878)"/>
</clipPath>
<clipPath id="clip1_2_1601">
<rect width="12" height="12" fill="white" style="fill:white;fill-opacity:1;" transform="translate(0.559937 0.0499878)"/>
</clipPath>
</defs>
</svg>
